HIERARCHY
ROOT Hips
{
    OFFSET 0.0 0.0 0.0
    CHANNELS 6 Xposition Yposition Zposition Zrotation Xrotation Yrotation
    JOINT Spine
    {
        OFFSET 0.0 5.0 0.0
        CHANNELS 3 Zrotation Xrotation Yrotation
        JOINT Chest
        {
            OFFSET 0.0 5.0 0.0
            CHANNELS 3 Zrotation Xrotation Yrotation
            JOINT Neck
            {
                OFFSET 0.0 8.0 0.0
                CHANNELS 3 Zrotation Xrotation Yrotation
                JOINT Head
                {
                    OFFSET 0.0 5.0 0.0
                    CHANNELS 3 Zrotation Xrotation Yrotation
                    End Site
                    {
                        OFFSET 0.0 3.0 0.0
                    }
                }
            }
            JOINT LeftShoulder
            {
                OFFSET -5.0 0.0 0.0
                CHANNELS 3 Zrotation Xrotation Yrotation
                JOINT LeftArm
                {
                    OFFSET 0.0 -10.0 0.0
                    CHANNELS 3 Zrotation Xrotation Yrotation
                    JOINT LeftForeArm
                    {
                        OFFSET 0.0 -10.0 0.0
                        CHANNELS 3 Zrotation Xrotation Yrotation
                        End Site
                        {
                            OFFSET 0.0 -3.0 0.0
                        }
                    }
                }
            }
        }
    }
}

MOTION
Frames: 37
Frame Time: 0.033333
970.000000 442.938926 128.714475 0.000000 0.000000 0.000000 0.000000 0.000000 0.000000 29.678605 1.506761 0.000000 180.000000 -9.036196 0.000000 29.744881 16.359268 -0.000000 150.255119 -6.023014 30.000000 19.983107 0.538601 0.000000 18.000000 -0.309319 0.000000
1354.522934 467.411410 124.981282 0.000000 0.000000 0.000000 0.000000 0.000000 0.000000 150.622570 0.547476 4.973798 -29.377430 0.893846 4.973798 140.176400 0.940292 3.759997 -12.221629 -0.187582 29.763441 132.794256 0.455600 -3.759997 -2.626015 0.141262 0.313953
969.997807 442.887864 134.135735 0.000000 0.000000 0.000000 0.000000 0.000000 0.000000 31.061399 -3.208038 9.635073 180.000000 15.584563 9.635073 30.285790 -11.131940 7.460697 149.714210 1.397227 29.057495 19.151579 -0.988838 -7.460697 18.000000 0.345053 0.626666
1246.736984 514.278152 131.069035 0.000000 0.000000 0.000000 0.000000 0.000000 0.000000 143.557092 22.328907 13.690942 -36.442908 -7.737818 13.690942 133.761037 3.052349 11.043737 -156.950665 -5.889385 27.893295 0.000000 0.000000 0.000000 1.928484 0.517417 0.936907
1245.221100 458.637464 119.114382 0.000000 0.000000 0.000000 0.000000 0.000000 0.000000 160.701064 15.064781 16.886559 -19.298936 -17.277145 16.886559 140.193827 -0.008610 14.452610 -157.554825 -5.911074 26.289200 29.500467 5.979660 -14.452610 -15.049953 -0.597966 1.243449
1257.365570 418.514181 96.422025 0.000000 0.000000 0.000000 0.000000 0.000000 0.000000 -143.710676 -0.549943 19.021130 36.289324 2.671462 19.021130 163.220413 -3.094192 17.633558 11.688054 1.054186 24.270510 152.038385 0.310775 -17.633558 -2.339948 0.062908 1.545085
1275.099564 408.163741 111.516750 0.000000 0.000000 0.000000 0.000000 0.000000 0.000000 -132.929531 -15.110981 19.960535 47.070469 -12.263494 19.960535 173.491912 0.601085 20.536413 -160.709681 -5.029864 21.869059 33.138793 5.135762 -20.536413 -14.686121 -0.513576 1.840623
1290.611115 384.880857 92.754433 0.000000 0.000000 0.000000 0.000000 0.000000 0.000000 -132.705235 4.928362 19.645745 47.294765 -3.776539 19.645745 -173.778854 -0.830461 23.115397 20.496835 -3.334222 19.122720 -161.220290 -3.477365 -23.115397 1.723235 0.400860 2.128896
1302.817154 380.305352 94.716481 0.000000 0.000000 0.000000 0.000000 0.000000 0.000000 -131.493915 -7.991494 18.096541 48.506085 0.520886 18.096541 -165.393697 1.053299 25.329838 23.154815 2.785396 16.074804 -178.200316 -1.804853 -25.329838 0.138141 0.204113 2.408768
1304.997711 379.563582 94.910606 0.000000 0.000000 0.000000 0.000000 0.000000 0.000000 -126.727972 4.048835 15.410265 53.272028 1.936628 15.410265 -160.219593 2.537178 27.144812 28.448880 -2.987406 12.773379 -174.368770 2.471862 -27.144812 0.079526 0.005120 2.679134
1311.668472 386.890390 74.805082 0.000000 0.000000 0.000000 0.000000 0.000000 0.000000 -122.308728 0.222959 11.755705 57.691272 -12.134602 11.755705 -158.801130 -0.144779 28.531695 150.942637 2.800556 9.270510 -154.878332 -5.191962 -28.531695 2.695409 0.516353 2.938926
1305.131836 395.180186 72.519844 0.000000 0.000000 0.000000 0.000000 0.000000 0.000000 -125.112810 -3.913377 7.362491 54.887190 -13.102875 7.362491 -146.487292 5.011575 29.468618 -175.167369 -0.252596 5.621439 -159.224034 -4.278975 -29.468618 1.782042 0.471001 3.187120
1296.320457 392.734526 79.340347 0.000000 0.000000 0.000000 0.000000 0.000000 0.000000 -131.035750 2.043284 2.506665 48.964250 2.832801 2.506665 -128.969563 -2.882081 29.940802 38.856147 -0.934858 1.883716 -134.776850 0.228867 -29.940802 3.458429 -0.225812 3.422736
1306.963577 386.612041 71.629716 0.000000 0.000000 0.000000 0.000000 0.000000 0.000000 -124.469622 -10.495448 -2.506665 55.530378 10.073507 -2.506665 -109.994856 0.717850 29.940802 37.691309 4.323182 -1.883716 -118.274788 -0.116083 -29.940802 5.098336 -0.034551 3.644843
969.892723 442.572198 65.614322 0.000000 0.000000 0.000000 0.000000 0.000000 0.000000 41.287575 -32.226976 -7.362491 180.000000 26.255530 -7.362491 30.974696 -16.102290 29.468618 149.025304 2.205166 -5.621439 15.072869 5.677045 -29.468618 18.000000 -0.158205 3.852566
969.876883 442.545207 59.840885 0.000000 0.000000 0.000000 0.000000 0.000000 0.000000 42.241956 32.588933 -11.755705 180.000000 2.333789 -11.755705 30.826133 -3.888999 28.531695 149.173867 -4.999753 -9.270510 14.823070 -0.646430 -28.531695 18.000000 -0.286324 4.045085
969.859960 442.518116 75.616846 0.000000 0.000000 0.000000 0.000000 0.000000 0.000000 43.199779 14.060823 -15.410265 180.000000 3.179310 -15.410265 30.649504 -18.978876 27.144812 149.350496 -4.263134 -12.773379 14.587557 -2.741428 -27.144812 18.000000 0.356083 4.221640
969.841956 442.490926 66.843500 0.000000 0.000000 0.000000 0.000000 0.000000 0.000000 44.157210 -22.456174 -18.096541 180.000000 -7.519546 -18.096541 30.446417 2.559824 25.329838 149.553583 12.084547 -16.074804 14.366154 1.603483 -25.329838 18.000000 -0.530140 4.381533
969.822873 442.463637 54.166901 0.000000 0.000000 0.000000 0.000000 0.000000 0.000000 45.110117 18.628325 -19.645745 180.000000 0.405092 -19.645745 30.218633 2.259598 23.115397 149.781367 9.498282 -19.122720 14.158653 -6.378602 -23.115397 18.000000 0.213425 4.524135
969.802712 442.436251 58.567098 0.000000 0.000000 0.000000 0.000000 0.000000 0.000000 46.054109 -9.954926 -19.960535 180.000000 -7.416992 -19.960535 29.968037 21.650071 20.536413 150.031963 -6.192030 -21.869059 13.964823 -1.478055 -20.536413 18.000000 0.301294 4.648882
1187.040939 541.658249 75.002555 0.000000 0.000000 0.000000 0.000000 0.000000 0.000000 82.806623 4.519611 -19.021130 -97.193377 -21.800603 -19.021130 45.395981 12.861667 17.633558 -156.144455 -2.653991 -24.270510 0.000000 0.000000 0.000000 0.000000 0.000000 0.000000
1182.242889 522.024286 67.059116 0.000000 0.000000 0.000000 0.000000 0.000000 0.000000 -105.721938 12.369058 -16.886559 74.278062 0.769803 -16.886559 -155.708006 -2.422321 14.452610 -157.302521 -2.449983 -26.289200 0.000000 0.000000 0.000000 2.684983 0.240216 4.842916
1180.914459 527.065626 46.629750 0.000000 0.000000 0.000000 0.000000 0.000000 0.000000 88.055617 -0.190451 -13.690942 -91.944383 -5.292520 -13.690942 -158.862018 -2.369566 11.043737 -151.747289 -2.939526 -27.893295 0.000000 0.000000 0.000000 0.000000 0.000000 0.000000
1236.800194 541.387432 62.068381 0.000000 0.000000 0.000000 0.000000 0.000000 0.000000 -85.588400 -11.636049 -9.635073 94.411600 10.705634 -9.635073 -159.297106 4.918597 7.460697 -157.915391 -1.781187 -29.057495 26.607362 3.375607 -7.460697 14.926890 -1.710551 4.960574
1161.066513 575.006626 56.736047 0.000000 0.000000 0.000000 0.000000 0.000000 0.000000 -81.021168 -8.044006 -4.973798 98.978832 16.658499 -4.973798 -102.851701 -7.644364 3.759997 -157.041007 -1.550867 -29.763441 21.429890 2.711004 -3.759997 10.859432 -0.644651 4.990134
1255.636253 512.645942 49.369650 0.000000 0.000000 0.000000 0.000000 0.000000 0.000000 77.832564 4.594892 -0.000000 -102.167436 0.112773 -0.000000 -158.264834 -2.299338 0.000000 -130.745502 -0.493694 -30.000000 -157.699225 -2.464891 -0.000000 0.000000 0.000000 0.000000
1265.118484 521.473864 63.171266 0.000000 0.000000 0.000000 0.000000 0.000000 0.000000 64.078276 -6.045945 4.973798 -115.921724 1.216772 4.973798 41.397952 -1.048562 -3.759997 -139.329851 -1.803365 -29.763441 20.223252 1.004055 3.759997 -16.047574 -0.101113 4.990134
1228.099480 522.138258 70.906241 0.000000 0.000000 0.000000 0.000000 0.000000 0.000000 71.050901 -3.330543 9.635073 -108.949099 -0.452003 9.635073 150.099970 -3.248438 -7.460697 -139.894702 2.492714 -29.057495 -156.275691 -3.830559 7.460697 0.000000 0.000000 0.000000
1240.357246 528.695873 56.395000 0.000000 0.000000 0.000000 0.000000 0.000000 0.000000 65.413351 5.147621 13.690942 -114.586649 8.457559 13.690942 147.242328 -3.384262 -11.043737 -154.470720 -2.358387 -27.893295 25.557225 3.059043 11.043737 -15.444278 -0.305904 4.911436
1231.815262 551.380248 62.831322 0.000000 0.000000 0.000000 0.000000 0.000000 0.000000 56.412506 21.661058 16.886559 -123.587494 -14.567689 16.886559 -153.392336 -4.854221 -14.452610 -154.784582 -3.090844 -26.289200 24.191555 3.749204 14.452610 -15.580844 -0.374920 4.842916
1221.475182 508.360147 74.966829 0.000000 0.000000 0.000000 0.000000 0.000000 0.000000 77.450622 8.352698 19.021130 -102.549378 3.948279 19.021130 -156.789784 -3.185536 -17.633558 -125.590168 1.101046 -24.270510 -160.017240 -3.610763 17.633558 1.833434 0.425384 4.755283
969.477684 442.100429 46.518734 0.000000 0.000000 0.000000 0.000000 0.000000 0.000000 54.932575 28.897931 19.960535 180.000000 -22.295904 19.960535 25.919122 -6.031059 -20.536413 154.080878 0.155648 -21.869059 12.612867 -5.568121 20.536413 18.000000 -0.333017 4.648882
1480.140495 518.878891 73.331792 0.000000 0.000000 0.000000 0.000000 0.000000 0.000000 -110.621767 -83.797006 19.645745 69.378233 -31.136867 19.645745 -158.235933 -2.365641 -23.115397 166.031448 0.188430 -19.122720 -155.186432 -2.573285 23.115397 2.641553 0.340130 4.524135
1271.640472 556.840560 69.669230 0.000000 0.000000 0.000000 0.000000 0.000000 0.000000 -94.404719 2.132252 18.096541 85.595281 21.104636 18.096541 -62.417786 -7.771858 -25.329838 23.992813 0.997202 -16.074804 -76.856107 0.332790 25.329838 7.708835 0.200336 4.381533
1258.556786 530.268441 85.737347 0.000000 0.000000 0.000000 0.000000 0.000000 0.000000 78.355945 -3.987575 15.410265 -101.644055 3.803351 15.410265 35.068294 -0.181202 -27.144812 -54.090640 1.316947 -12.773379 35.848220 2.454474 27.144812 -8.104639 -0.984906 4.221640
1250.800209 527.150567 67.634980 0.000000 0.000000 0.000000 0.000000 0.000000 0.000000 72.417769 7.007297 11.755705 -107.582231 7.921730 11.755705 24.571109 -5.627360 -28.531695 -39.196117 3.652717 -9.270510 10.411117 0.305053 28.531695 -9.048616 -0.473770 4.045085
1243.466148 571.776259 85.974022 0.000000 0.000000 0.000000 0.000000 0.000000 0.000000 86.301473 -2.730489 7.362491 -93.698527 15.724621 7.362491 24.553534 -6.254044 -29.468618 -153.460385 -3.699727 -5.621439 19.510484 2.922295 29.468618 -10.109500 1.572907 3.852566
